<?xml version="1.0" encoding="UTF-8"?>
<svg xmlns="http://www.w3.org/2000/svg" width="48" height="50" viewBox="0 0 48 50">
  <g id="icon-classement" transform="translate(-788.225 -1614.457)">
    <path id="podium" d="M835.3,1712.928h-3.935v-6.31a.919.919,0,0,0-.923-.915h-3.935v-6.31a.919.919,0,0,0-.923-.915H798.865a.919.919,0,0,0-.923.915v6.31h-3.935a.919.919,0,0,0-.923.915v6.31h-3.935a.919.919,0,0,0-.923.915v7.226a.919.919,0,0,0,.923.915H835.3a.919.919,0,0,0,.923-.915v-7.226A.919.919,0,0,0,835.3,1712.928Zm-35.514-12.62h24.875v5.395H799.788Zm-4.858,7.225h34.591v5.4H794.929Zm39.449,12.62H790.071v-5.395h44.308Z" transform="translate(0 -57.526)" fill="#1d4483"/>
    <path id="star" d="M832.162,1628.689l-1.192,6.894a.911.911,0,0,0,.367.9.93.93,0,0,0,.972.07l6.244-3.255,6.245,3.255a.93.93,0,0,0,.972-.07.911.911,0,0,0,.367-.9l-1.193-6.894,5.052-4.883a.91.91,0,0,0,.234-.938.921.921,0,0,0-.745-.623l-6.981-1.006-3.122-6.272a.927.927,0,0,0-1.656,0l-3.122,6.272-6.981,1.006a.921.921,0,0,0-.745.623.91.91,0,0,0,.233.938Zm3.187-5.707a.922.922,0,0,0,.695-.5l2.509-5.041,2.51,5.041a.922.922,0,0,0,.7.5l5.611.808-4.06,3.924a.911.911,0,0,0-.266.81l.958,5.541-5.018-2.616a.931.931,0,0,0-.859,0l-5.018,2.616.958-5.54a.911.911,0,0,0-.265-.81l-4.06-3.924Z" transform="translate(-26.329)" fill="#ad070e"/>
  </g>
</svg>
